HIERARCHY
ROOT joint_0
{
	OFFSET 0.000000 0.000000 0.000000
	CHANNELS 6 Xposition Yposition Zposition Zrotation Yrotation Xrotation 
	JOINT joint_1
	{
		OFFSET 0.511002 1.944000 108.288940
		CHANNELS 3 Zrotation Yrotation Xrotation
		JOINT joint_2
		{
			OFFSET -9.074005 1.512993 98.440063
			CHANNELS 3 Zrotation Yrotation Xrotation
			JOINT joint_3
			{
				OFFSET -8.590996 1.815002 98.366943
				CHANNELS 3 Zrotation Yrotation Xrotation
				JOINT joint_4
				{
					OFFSET 2.489998 3.531998 136.462036
					CHANNELS 3 Zrotation Yrotation Xrotation
					JOINT joint_5
					{
						OFFSET 22.708000 2.955002 80.357056
						CHANNELS 3 Zrotation Yrotation Xrotation
						End Site
						{
							OFFSET 0.000000 0.000000 0.000000
						}
					}
				}
				JOINT joint_6
				{
					OFFSET 2.860001 -27.684998 77.234009
					CHANNELS 3 Zrotation Yrotation Xrotation
					JOINT joint_7
					{
						OFFSET 5.449997 -131.244003 -18.851929
						CHANNELS 3 Zrotation Yrotation Xrotation
						JOINT joint_8
						{
							OFFSET 35.757000 -24.661995 -264.074097
							CHANNELS 3 Zrotation Yrotation Xrotation
							JOINT joint_9
							{
								OFFSET 49.392001 -1.747002 -239.960938
								CHANNELS 3 Zrotation Yrotation Xrotation
								End Site
								{
									OFFSET 0.000000 0.000000 0.000000
								}
							}
						}
					}
				}
				JOINT joint_10
				{
					OFFSET -0.127998 31.625000 75.753052
					CHANNELS 3 Zrotation Yrotation Xrotation
					JOINT joint_11
					{
						OFFSET -5.618004 131.132996 -19.557007
						CHANNELS 3 Zrotation Yrotation Xrotation
						JOINT joint_12
						{
							OFFSET 46.488998 30.127991 -261.826050
							CHANNELS 3 Zrotation Yrotation Xrotation
							JOINT joint_13
							{
								OFFSET 66.021003 0.474030 -235.934937
								CHANNELS 3 Zrotation Yrotation Xrotation
								End Site
								{
									OFFSET 0.000000 0.000000 0.000000
								}
							}
						}
					}
				}
			}
		}
	}
	JOINT joint_14
	{
		OFFSET 15.887001 -78.871004 -94.561035
		CHANNELS 3 Zrotation Yrotation Xrotation
		JOINT joint_15
		{
			OFFSET -4.133003 6.714001 -473.615967
			CHANNELS 3 Zrotation Yrotation Xrotation
			JOINT joint_16
			{
				OFFSET -19.541000 5.340000 -399.613007
				CHANNELS 3 Zrotation Yrotation Xrotation
				JOINT joint_17
				{
					OFFSET 164.317001 41.657999 -73.195000
					CHANNELS 3 Zrotation Yrotation Xrotation
					End Site
					{
						OFFSET 0.000000 0.000000 0.000000
					}
				}
			}
		}
	}
	JOINT joint_18
	{
		OFFSET 6.513000 77.960991 -96.406982
		CHANNELS 3 Zrotation Yrotation Xrotation
		JOINT joint_19
		{
			OFFSET -10.660004 -8.518997 -473.485016
			CHANNELS 3 Zrotation Yrotation Xrotation
			JOINT joint_20
			{
				OFFSET -36.967995 -11.098999 -398.260010
				CHANNELS 3 Zrotation Yrotation Xrotation
				JOINT joint_21
				{
					OFFSET 166.067997 30.363998 -74.785000
					CHANNELS 3 Zrotation Yrotation Xrotation
					End Site
					{
						OFFSET 0.000000 0.000000 0.000000
					}
				}
			}
		}
	}
}
MOTION
Frames: 10
Frame Time: 0.016667
-1746.001831 873.410156 1057.822021 -1.072705 9.913487 0.766935 -0.011964 10.608550 -1.850107 -0.758363 -1.333024 0.473825 -1.035091 1.968818 -0.231368 0.679854 -10.252456 -0.983063 0.000000 0.000000 0.000000 16.118843 -16.719599 -5.420768 -18.731149 -11.033893 0.207985 -2.371189 -84.399466 37.875211 0.000000 0.000000 0.000000 -10.119022 -6.171764 -0.828151 13.975841 -5.752925 2.643638 178.820050 -82.795568 168.499357 0.000000 0.000000 0.000000 -3.033002 -28.414150 -5.480791 -1.700907 37.650593 1.165946 -4.705123 -3.350703 -0.993191 0.000000 0.000000 0.000000 -1.667702 -11.508119 7.985110 -1.364685 23.979339 -5.644455 -1.370815 -2.677342 -0.068404 0.000000 0.000000 0.000000 
-1726.847656 868.209961 1055.858032 -0.720279 9.583498 1.101434 -0.406989 10.889049 -2.229777 -0.354641 -1.443339 0.529058 -0.569380 2.043073 -0.307922 0.501192 -9.770591 -0.571582 0.000000 0.000000 0.000000 15.736756 -17.364913 -5.004471 -20.706944 -11.292277 -0.531998 -3.358972 -85.803902 42.433757 0.000000 0.000000 0.000000 -10.635808 -5.854573 -1.119279 14.253418 -5.668354 3.204645 178.841554 -81.133301 168.518054 0.000000 0.000000 0.000000 -2.316911 -27.411062 -6.026007 -1.955136 33.302955 1.211256 -4.308893 -2.276601 -1.138476 0.000000 0.000000 0.000000 -1.916589 -13.035436 9.002578 -2.137238 29.400336 -7.463509 -2.639277 -0.539392 -0.974501 0.000000 0.000000 0.000000 
-1707.265259 862.651428 1051.599976 -0.395190 9.106879 1.529301 -0.602825 10.547428 -2.501408 0.099373 -1.433349 0.589679 -0.056296 2.030487 -0.386943 0.408666 -9.184541 -0.445242 0.000000 0.000000 0.000000 15.372945 -17.408704 -5.053035 -21.986650 -10.745126 -0.151515 -4.000079 -87.733190 45.354166 0.000000 0.000000 0.000000 -11.717072 -5.082539 -1.123351 14.638333 -5.257804 3.490513 179.097556 -79.321129 168.816413 0.000000 0.000000 0.000000 -2.439144 -26.210428 -6.246851 -2.951904 32.764042 0.936020 -5.801002 -4.446928 -1.185632 0.000000 0.000000 0.000000 -2.606189 -13.967925 10.537808 -3.220757 34.312843 -10.515905 -4.771844 2.225581 -2.338414 0.000000 0.000000 0.000000 
-1687.670410 856.870300 1045.958008 -0.098726 8.563289 1.918131 -0.701472 9.817408 -2.571555 0.561317 -1.331571 0.582785 0.488423 1.908731 -0.448320 0.359168 -8.520193 -0.466543 0.000000 0.000000 0.000000 15.058577 -17.356766 -5.336392 -22.947911 -9.816514 0.772970 -4.586629 -89.503723 47.719635 0.000000 0.000000 0.000000 -13.053512 -4.083577 -0.922646 15.110106 -4.777966 3.597625 179.514322 -77.607700 169.204567 0.000000 0.000000 0.000000 -2.901283 -24.738947 -6.226013 -4.237265 33.885086 0.556385 -8.108695 -8.405065 -1.085844 0.000000 0.000000 0.000000 -3.496846 -14.657793 12.540729 -4.439061 38.867303 -14.270955 -7.601654 5.835007 -4.139322 0.000000 0.000000 0.000000 
-1668.666382 851.331726 1040.437012 0.070334 8.304829 2.130625 -0.841010 8.774192 -2.498509 0.870756 -1.199266 0.532328 0.900120 1.719508 -0.475654 0.314804 -7.997808 -0.459433 0.000000 0.000000 0.000000 14.977238 -17.591729 -5.457616 -23.826751 -9.051704 1.539228 174.682322 -89.713151 -129.856337 0.000000 0.000000 0.000000 -13.949886 -3.013239 -0.770498 15.593672 -4.339489 3.733398 179.975005 -76.052801 169.637011 0.000000 0.000000 0.000000 -3.204925 -23.333165 -5.979545 -5.273249 34.657799 0.182203 -10.042164 -12.077050 -0.902802 0.000000 0.000000 0.000000 -3.882682 -15.726574 14.655190 -5.219375 43.109817 -17.373448 -9.687836 8.689672 -5.544188 0.000000 0.000000 0.000000 
-1650.114624 845.830139 1034.979004 0.026678 8.658158 2.085015 -1.054599 7.056576 -2.275454 0.893963 -1.007605 0.466876 1.037270 1.471747 -0.466825 0.271950 -7.710860 -0.382209 0.000000 0.000000 0.000000 15.422129 -18.252352 -5.310973 -24.877920 -8.635309 1.890513 -6.440062 -89.670838 53.160514 0.000000 0.000000 0.000000 -14.060906 -1.828763 -0.808727 16.160741 -3.884907 4.112932 -179.472343 -74.407053 170.176921 0.000000 0.000000 0.000000 -3.154942 -22.136193 -5.334946 -5.992991 34.255301 -0.241739 -11.233312 -15.161493 -0.580061 0.000000 0.000000 0.000000 -3.442034 -17.793558 16.930856 -5.479748 47.981274 -19.503320 -10.201099 9.247505 -5.948727 0.000000 0.000000 0.000000 
-1632.152954 840.571350 1029.640991 -0.119742 9.306003 1.897389 -1.105146 5.019471 -1.929090 0.664944 -0.764477 0.393573 0.889754 1.129357 -0.416877 0.235661 -7.548987 -0.282888 0.000000 0.000000 0.000000 16.106085 -19.086765 -4.998334 -25.695762 -8.426972 2.054951 -7.724476 -87.843002 56.093018 0.000000 0.000000 0.000000 -13.726854 -0.596123 -0.912318 16.724976 -3.437191 4.544882 -178.870301 -72.926397 170.765756 0.000000 0.000000 0.000000 -3.021773 -21.034846 -4.457832 -6.522014 33.544299 -0.698272 -12.079149 -17.935838 -0.194450 0.000000 0.000000 0.000000 -2.619102 -20.405313 19.242694 -5.596319 52.897989 -20.906791 -9.700849 8.294472 -5.670195 0.000000 0.000000 0.000000 
-1615.800537 836.624695 1026.103027 -0.227371 9.736295 1.739390 -0.979959 3.607786 -1.633777 0.413047 -0.592052 0.333830 0.655536 0.832547 -0.346392 0.184364 -7.490353 -0.127798 0.000000 0.000000 0.000000 16.319670 -19.813401 -4.416987 -25.369603 -8.592291 2.056731 -8.090156 -85.280800 56.914528 0.000000 0.000000 0.000000 -13.244159 0.234841 -0.979313 16.993330 -3.180478 4.742178 -178.520153 -72.356538 171.112886 0.000000 0.000000 0.000000 -2.955512 -20.198233 -3.850524 -6.780378 33.411696 -0.957838 -12.609230 -19.631811 0.049640 0.000000 0.000000 0.000000 -1.725745 -22.841939 21.011961 -5.496037 56.081553 -21.281481 -8.311126 6.937916 -4.908685 0.000000 0.000000 0.000000 
-1601.850342 834.278625 1025.177002 -0.223131 9.730380 1.648280 -0.915508 3.222400 -1.427378 0.318537 -0.545713 0.266325 0.560660 0.720089 -0.281973 0.101898 -7.637598 0.117945 0.000000 0.000000 0.000000 15.620979 -20.443820 -3.295742 -23.400394 -9.354256 1.819467 -6.654710 -82.430760 54.162825 0.000000 0.000000 0.000000 -12.641748 0.367608 -0.933030 16.829055 -3.206191 4.589848 -178.615341 -73.126518 170.947463 0.000000 0.000000 0.000000 -2.910315 -19.710448 -3.687176 -6.731544 34.329692 -0.939131 -12.835383 -20.032865 0.093404 0.000000 0.000000 0.000000 -0.674257 -24.957063 22.113766 -4.807660 56.928273 -20.536786 -5.372714 5.429429 -3.507841 0.000000 0.000000 0.000000 
-1589.509521 833.244568 1026.051025 -0.188104 9.550500 1.555204 -0.917014 3.366179 -1.210147 0.312375 -0.564083 0.182075 0.554808 0.728564 -0.223960 0.003299 -7.924554 0.411207 0.000000 0.000000 0.000000 14.383007 -21.074047 -1.842042 -20.862076 -10.438308 1.465809 -4.493305 -79.439690 49.965018 0.000000 0.000000 0.000000 -11.901579 0.034431 -0.881214 16.379544 -3.399958 4.253945 -178.985491 -74.771375 170.524850 0.000000 0.000000 0.000000 -2.828317 -19.538840 -3.788445 -6.462946 35.896459 -0.683651 -12.795183 -19.444670 -0.002396 0.000000 0.000000 0.000000 0.461411 -26.864952 22.701199 -3.601490 55.780738 -19.078464 -1.576778 3.646732 -1.730993 0.000000 0.000000 0.000000 
